<svg width="20" height="20" viewBox="0 0 20 20" fill="none" xmlns="http://www.w3.org/2000/svg">
<path d="M17.4119 1.17627H15.6472V2.94098C15.6472 3.29392 15.3531 3.52921 15.0589 3.52921C14.7648 3.52921 14.4707 3.29392 14.4707 2.94098V1.17627H5.05897V2.94098C5.05897 3.29392 4.76485 3.52921 4.47073 3.52921C4.17661 3.52921 3.88249 3.29392 3.88249 2.94098V1.17627H2.11779C1.23544 1.17627 0.588379 1.94098 0.588379 2.94098V5.05863H19.4119V2.94098C19.4119 1.94098 18.3531 1.17627 17.4119 1.17627ZM0.588379 6.29392V17.0586C0.588379 18.1174 1.23544 18.8233 2.17661 18.8233H17.4707C18.4119 18.8233 19.4707 18.0586 19.4707 17.0586V6.29392H0.588379ZM5.82367 16.1763H4.41191C4.17661 16.1763 3.94132 15.9998 3.94132 15.7057V14.2351C3.94132 13.9998 4.11779 13.7645 4.41191 13.7645H5.88249C6.11779 13.7645 6.35308 13.941 6.35308 14.2351V15.7057C6.29426 15.9998 6.11779 16.1763 5.82367 16.1763ZM5.82367 10.8821H4.41191C4.17661 10.8821 3.94132 10.7057 3.94132 10.4115V8.94098C3.94132 8.70568 4.11779 8.47039 4.41191 8.47039H5.88249C6.11779 8.47039 6.35308 8.64686 6.35308 8.94098V10.4115C6.29426 10.7057 6.11779 10.8821 5.82367 10.8821ZM10.5295 16.1763H9.05897C8.82367 16.1763 8.58838 15.9998 8.58838 15.7057V14.2351C8.58838 13.9998 8.76485 13.7645 9.05897 13.7645H10.5295C10.7648 13.7645 11.0001 13.941 11.0001 14.2351V15.7057C11.0001 15.9998 10.8237 16.1763 10.5295 16.1763ZM10.5295 10.8821H9.05897C8.82367 10.8821 8.58838 10.7057 8.58838 10.4115V8.94098C8.58838 8.70568 8.76485 8.47039 9.05897 8.47039H10.5295C10.7648 8.47039 11.0001 8.64686 11.0001 8.94098V10.4115C11.0001 10.7057 10.8237 10.8821 10.5295 10.8821ZM15.2354 16.1763H13.7648C13.5295 16.1763 13.2942 15.9998 13.2942 15.7057V14.2351C13.2942 13.9998 13.4707 13.7645 13.7648 13.7645H15.2354C15.4707 13.7645 15.706 13.941 15.706 14.2351V15.7057C15.706 15.9998 15.5295 16.1763 15.2354 16.1763ZM15.2354 10.8821H13.7648C13.5295 10.8821 13.2942 10.7057 13.2942 10.4115V8.94098C13.2942 8.70568 13.4707 8.47039 13.7648 8.47039H15.2354C15.4707 8.47039 15.706 8.64686 15.706 8.94098V10.4115C15.706 10.7057 15.5295 10.8821 15.2354 10.8821Z" fill="#9101CF"/>
</svg>
