<svg width="20" height="20" viewBox="0 0 20 20" fill="none" xmlns="http://www.w3.org/2000/svg">
<path d="M7.93746 1H2.31246C1.58873 1 1 1.58873 1 2.31246V5.68746C1 6.41132 1.58873 7.00005 2.31246 7.00005H7.93746C8.66133 7.00005 9.25006 6.41132 9.25006 5.68746V2.31246C9.25006 1.58873 8.66133 1 7.93746 1Z" fill="white"/>
<path d="M7.93746 8.5H2.31246C1.58873 8.5 1 9.08873 1 9.81259V17.6876C1 18.4114 1.58873 19.0001 2.31246 19.0001H7.93746C8.66133 19.0001 9.25006 18.4114 9.25006 17.6876V9.81259C9.25006 9.08873 8.66133 8.5 7.93746 8.5Z" fill="white"/>
<path d="M17.6876 13H12.0626C11.3387 13 10.75 13.5888 10.75 14.3126V17.6876C10.75 18.4114 11.3387 19.0001 12.0626 19.0001H17.6876C18.4113 19.0001 19 18.4114 19 17.6876V14.3126C19 13.5888 18.4113 13 17.6876 13Z" fill="white"/>
<path d="M17.6876 1H12.0626C11.3387 1 10.75 1.58873 10.75 2.31246V10.1875C10.75 10.9113 11.3387 11.5001 12.0626 11.5001H17.6876C18.4113 11.5001 19 10.9113 19 10.1875V2.31246C19 1.58873 18.4113 1 17.6876 1Z" fill="white"/>
</svg>
