<svg width="20" height="20" viewBox="0 0 20 20" fill="none" xmlns="http://www.w3.org/2000/svg">
<path d="M8.33341 5.00002H11.6667C11.6667 4.55799 11.4912 4.13407 11.1786 3.82151C10.866 3.50895 10.4421 3.33335 10.0001 3.33335C9.55805 3.33335 9.13413 3.50895 8.82157 3.82151C8.50901 4.13407 8.33341 4.55799 8.33341 5.00002ZM6.66675 5.00002C6.66675 4.11597 7.01794 3.26812 7.64306 2.643C8.26818 2.01788 9.11603 1.66669 10.0001 1.66669C10.8841 1.66669 11.732 2.01788 12.3571 2.643C12.9822 3.26812 13.3334 4.11597 13.3334 5.00002H17.5001C17.7211 5.00002 17.9331 5.08782 18.0893 5.2441C18.2456 5.40038 18.3334 5.61234 18.3334 5.83335C18.3334 6.05437 18.2456 6.26633 18.0893 6.42261C17.9331 6.57889 17.7211 6.66669 17.5001 6.66669H16.7651L16.0267 15.2834C15.9558 16.1154 15.5751 16.8905 14.96 17.4553C14.3449 18.0201 13.5402 18.3335 12.7051 18.3334H7.29508C6.46001 18.3335 5.65531 18.0201 5.04021 17.4553C4.4251 16.8905 4.0444 16.1154 3.97341 15.2834L3.23508 6.66669H2.50008C2.27907 6.66669 2.06711 6.57889 1.91083 6.42261C1.75455 6.26633 1.66675 6.05437 1.66675 5.83335C1.66675 5.61234 1.75455 5.40038 1.91083 5.2441C2.06711 5.08782 2.27907 5.00002 2.50008 5.00002H6.66675ZM12.5001 10C12.5001 9.77901 12.4123 9.56705 12.256 9.41076C12.0997 9.25448 11.8878 9.16669 11.6667 9.16669C11.4457 9.16669 11.2338 9.25448 11.0775 9.41076C10.9212 9.56705 10.8334 9.77901 10.8334 10V13.3334C10.8334 13.5544 10.9212 13.7663 11.0775 13.9226C11.2338 14.0789 11.4457 14.1667 11.6667 14.1667C11.8878 14.1667 12.0997 14.0789 12.256 13.9226C12.4123 13.7663 12.5001 13.5544 12.5001 13.3334V10ZM8.33341 9.16669C8.1124 9.16669 7.90044 9.25448 7.74416 9.41076C7.58788 9.56705 7.50008 9.77901 7.50008 10V13.3334C7.50008 13.5544 7.58788 13.7663 7.74416 13.9226C7.90044 14.0789 8.1124 14.1667 8.33341 14.1667C8.55443 14.1667 8.76639 14.0789 8.92267 13.9226C9.07895 13.7663 9.16675 13.5544 9.16675 13.3334V10C9.16675 9.77901 9.07895 9.56705 8.92267 9.41076C8.76639 9.25448 8.55443 9.16669 8.33341 9.16669Z" fill="#767676" fill-opacity="1"/>
</svg>
