<svg width="20" height="20" viewBox="0 0 20 20" fill="none" xmlns="http://www.w3.org/2000/svg">
<path d="M12.9591 10.8301L11.2841 12.5108C10.6048 13.1925 9.40972 13.2072 8.71577 12.5108L7.04065 10.8301L1.02441 16.8659C1.24835 16.9695 1.49526 17.0313 1.75776 17.0313H18.2421C18.5046 17.0313 18.7514 16.9696 18.9753 16.866L12.9591 10.8301Z" fill="#9101CF"/>
<path d="M18.2423 2.96875H1.75794C1.49544 2.96875 1.24852 3.03055 1.02466 3.1341L7.45345 9.58422L7.45481 9.58516L7.45532 9.58617L9.54567 11.6834C9.7677 11.9055 10.2326 11.9055 10.4546 11.6834L12.5446 9.58652L12.5455 9.58516L12.5469 9.58422L18.9755 3.13406C18.7516 3.03047 18.5048 2.96875 18.2423 2.96875Z" fill="#9101CF"/>
<path d="M0.186953 3.95361C0.0710937 4.18791 0 4.44799 0 4.72658V15.2735C0 15.5521 0.0710156 15.8121 0.186914 16.0464L6.21359 10.0002L0.186953 3.95361Z" fill="#9101CF"/>
<path d="M19.813 3.95361L13.7864 10.0003L19.813 16.0466C19.9289 15.8123 20 15.5522 20 15.2735V4.72666C20 4.44799 19.9289 4.18791 19.813 3.95361Z" fill="#9101CF"/>
</svg>
