<svg width="20" height="20" viewBox="0 0 20 20" fill="none" xmlns="http://www.w3.org/2000/svg">
<g clip-path="url(#clip0_157_527)">
<mask id="mask0_157_527" style="mask-type:luminance" maskUnits="userSpaceOnUse" x="0" y="0" width="20" height="20">
<path d="M20 0H0V20H20V0Z" fill="white"/>
</mask>
<g mask="url(#mask0_157_527)">
<path d="M10.0006 0C4.47949 0 0.000488281 4.47335 0.000488281 9.99474C0.000488281 15.5214 4.47949 20 10.0005 20C15.5245 20 19.9997 15.5214 19.9997 9.99474C19.9998 4.47335 15.5245 0 10.0006 0ZM10.7132 15.559C10.4809 15.7657 10.2117 15.8696 9.90678 15.8696C9.5913 15.8696 9.31612 15.7676 9.08122 15.5631C8.84596 15.3591 8.72809 15.0734 8.72809 14.7063C8.72809 14.3807 8.84216 14.1066 9.06955 13.8845C9.29694 13.6624 9.57588 13.5514 9.90678 13.5514C10.2324 13.5514 10.5065 13.6624 10.729 13.8845C10.9511 14.1066 11.0625 14.3807 11.0625 14.7063C11.0621 15.0681 10.9458 15.3524 10.7132 15.559ZM13.6092 8.37939C13.4307 8.71029 13.2188 8.99561 12.973 9.2362C12.7279 9.47675 12.2871 9.88105 11.6509 10.4495C11.4754 10.6099 11.3343 10.7506 11.2285 10.8718C11.1227 10.9935 11.0437 11.1045 10.9921 11.2054C10.9401 11.3062 10.9003 11.4072 10.872 11.508C10.8438 11.6085 10.8012 11.7859 10.7436 12.0392C10.6458 12.5768 10.3382 12.8455 9.82128 12.8455C9.55249 12.8455 9.32663 12.7578 9.14254 12.582C8.95919 12.4062 8.86772 12.1453 8.86772 11.799C8.86772 11.365 8.93511 10.9889 9.0695 10.6708C9.20316 10.3527 9.38197 10.0738 9.60408 9.83321C9.82656 9.59266 10.1262 9.30729 10.5038 8.97639C10.8347 8.6869 11.0738 8.46858 11.221 8.32136C11.3685 8.17381 11.4924 8.00968 11.5929 7.82897C11.6942 7.64789 11.7439 7.45176 11.7439 7.23984C11.7439 6.82613 11.5907 6.47754 11.2827 6.19333C10.9752 5.90911 10.5784 5.7668 10.0924 5.7668C9.52355 5.7668 9.10493 5.91022 8.83614 6.19708C8.56735 6.48394 8.34037 6.9063 8.15401 7.46459C7.97784 8.04886 7.6443 8.34095 7.15377 8.34095C6.86427 8.34095 6.61998 8.23892 6.42084 8.03487C6.22207 7.83082 6.12268 7.60987 6.12268 7.37196C6.12268 6.88106 6.28042 6.38339 6.59553 5.87933C6.911 5.37528 7.37102 4.95778 7.97594 4.62725C8.5805 4.29635 9.28638 4.13069 10.0924 4.13069C10.8419 4.13069 11.5033 4.26921 12.077 4.54592C12.6507 4.82222 13.0942 5.19832 13.407 5.67413C13.7195 6.14956 13.8761 6.66645 13.8761 7.22474C13.8768 7.66336 13.7876 8.04849 13.6092 8.37939Z" fill="white"/>
</g>
</g>
<defs>
<clipPath id="clip0_157_527">
<rect width="20" height="20" fill="white"/>
</clipPath>
</defs>
</svg>
