<svg width="34" height="34" viewBox="0 0 34 34" fill="none" xmlns="http://www.w3.org/2000/svg">
<path d="M22.3125 2.125H20.0047C19.567 0.88825 18.3855 0 17 0C15.6145 0 14.433 0.88825 13.9931 2.125H11.6875C11.101 2.125 10.625 2.601 10.625 3.1875V7.4375C10.625 8.024 11.101 8.5 11.6875 8.5H22.3125C22.899 8.5 23.375 8.024 23.375 7.4375V3.1875C23.375 2.601 22.899 2.125 22.3125 2.125Z" fill="white"/>
<path d="M27.625 4.25H25.5V7.4375C25.5 9.19488 24.0699 10.625 22.3125 10.625H11.6875C9.93012 10.625 8.5 9.19488 8.5 7.4375V4.25H6.375C5.20412 4.25 4.25 5.20412 4.25 6.375V31.875C4.25 33.0671 5.18288 34 6.375 34H27.625C28.8171 34 29.75 33.0671 29.75 31.875V6.375C29.75 5.18288 28.8171 4.25 27.625 4.25ZM16.6898 23.0648L12.4398 27.3148C12.2315 27.5209 11.9595 27.625 11.6875 27.625C11.4155 27.625 11.1435 27.5209 10.9352 27.3148L8.81025 25.1898C8.39587 24.7754 8.39587 24.1018 8.81025 23.6874C9.22462 23.273 9.89825 23.273 10.3126 23.6874L11.6875 25.0601L15.1852 21.5624C15.5996 21.148 16.2733 21.148 16.6876 21.5624C17.102 21.9768 17.1041 22.6483 16.6898 23.0648ZM16.6898 14.5648L12.4398 18.8148C12.2315 19.0209 11.9595 19.125 11.6875 19.125C11.4155 19.125 11.1435 19.0209 10.9352 18.8148L8.81025 16.6898C8.39587 16.2754 8.39587 15.6017 8.81025 15.1874C9.22462 14.773 9.89825 14.773 10.3126 15.1874L11.6875 16.5601L15.1852 13.0624C15.5996 12.648 16.2733 12.648 16.6876 13.0624C17.102 13.4767 17.1041 14.1483 16.6898 14.5648ZM24.4375 25.5H20.1875C19.601 25.5 19.125 25.024 19.125 24.4375C19.125 23.851 19.601 23.375 20.1875 23.375H24.4375C25.024 23.375 25.5 23.851 25.5 24.4375C25.5 25.024 25.024 25.5 24.4375 25.5ZM24.4375 17H20.1875C19.601 17 19.125 16.524 19.125 15.9375C19.125 15.351 19.601 14.875 20.1875 14.875H24.4375C25.024 14.875 25.5 15.351 25.5 15.9375C25.5 16.524 25.024 17 24.4375 17Z" fill="white"/>
</svg>
