<svg width="147" height="34" viewBox="0 0 147 34" fill="none" xmlns="http://www.w3.org/2000/svg">
<path fill-rule="evenodd" clip-rule="evenodd" d="M14.2818 17L21.4477 24.2607L16.6622 29.1429L4.76213 17L16.6622 4.85708L18.4477 6.67833L20.8277 4.24958L16.6622 3.98069e-07L0 17L16.6622 34L26.1823 24.2858L16.6622 14.5713L14.2818 17Z" fill="white"/>
<path fill-rule="evenodd" clip-rule="evenodd" d="M33.7191 17L26.5531 9.73934L31.3386 4.85709L43.2387 17L31.3386 29.1429L29.5532 27.3217L27.1732 29.7504L31.3386 34L48.0008 17L31.3386 0L21.8186 9.71417L31.3386 19.4288L33.7191 17Z" fill="white"/>
<path d="M58.2058 17.1918C58.2058 16.0065 58.4708 14.9478 59.0007 14.0157C59.5422 13.072 60.2737 12.3413 61.1953 11.8235C62.1285 11.2941 63.171 11.0294 64.3231 11.0294C65.6709 11.0294 66.8517 11.3747 67.8655 12.0651C68.8793 12.7556 69.5878 13.7107 69.991 14.9305H67.2089C66.9324 14.3552 66.5407 13.9236 66.0338 13.6359C65.5384 13.3482 64.9624 13.2044 64.3058 13.2044C63.603 13.2044 62.9752 13.3712 62.4222 13.705C61.8808 14.0272 61.4545 14.4875 61.1435 15.0859C60.844 15.6843 60.6942 16.3863 60.6942 17.1918C60.6942 17.9858 60.844 18.6878 61.1435 19.2977C61.4545 19.8961 61.8808 20.3622 62.4222 20.6959C62.9752 21.0181 63.603 21.1792 64.3058 21.1792C64.9624 21.1792 65.5384 21.0354 66.0338 20.7477C66.5407 20.4485 66.9324 20.0112 67.2089 19.4358H69.991C69.5878 20.6671 68.8793 21.628 67.8655 22.3185C66.8633 22.9974 65.6824 23.3369 64.3231 23.3369C63.171 23.3369 62.1285 23.078 61.1953 22.5601C60.2737 22.0308 59.5422 21.3 59.0007 20.3679C58.4708 19.4358 58.2058 18.3771 58.2058 17.1918Z" fill="white"/>
<path d="M77.6562 23.3542C76.5272 23.3542 75.4904 23.0895 74.5457 22.5601C73.6011 22.0308 72.8522 21.3 72.2993 20.3679C71.7463 19.4243 71.4698 18.3598 71.4698 17.1745C71.4698 16.0007 71.7463 14.9478 72.2993 14.0157C72.8522 13.072 73.6011 12.3356 74.5457 11.8062C75.4904 11.2768 76.5272 11.0122 77.6562 11.0122C78.7967 11.0122 79.8335 11.2768 80.7666 11.8062C81.7113 12.3356 82.4543 13.072 82.9958 14.0157C83.5487 14.9478 83.8252 16.0007 83.8252 17.1745C83.8252 18.3598 83.5487 19.4243 82.9958 20.3679C82.4543 21.3 81.7113 22.0308 80.7666 22.5601C79.822 23.0895 78.7851 23.3542 77.6562 23.3542ZM77.6562 21.1965C78.3819 21.1965 79.0213 21.0354 79.5743 20.7131C80.1272 20.3794 80.5593 19.9076 80.8703 19.2977C81.1813 18.6878 81.3369 17.9801 81.3369 17.1745C81.3369 16.369 81.1813 15.667 80.8703 15.0686C80.5593 14.4587 80.1272 13.9927 79.5743 13.6704C79.0213 13.3482 78.3819 13.1871 77.6562 13.1871C76.9304 13.1871 76.2853 13.3482 75.7208 13.6704C75.1678 13.9927 74.7358 14.4587 74.4247 15.0686C74.1137 15.667 73.9582 16.369 73.9582 17.1745C73.9582 17.9801 74.1137 18.6878 74.4247 19.2977C74.7358 19.9076 75.1678 20.3794 75.7208 20.7131C76.2853 21.0354 76.9304 21.1965 77.6562 21.1965Z" fill="white"/>
<path d="M98.7754 11.1848V23.2333H96.3562V15.3966L93.1247 23.2333H91.293L88.0443 15.3966V23.2333H85.6251V11.1848H88.3727L92.2089 20.1435L96.0451 11.1848H98.7754Z" fill="white"/>
<path d="M109.963 14.9133C109.963 15.5577 109.807 16.1619 109.496 16.7257C109.197 17.2896 108.719 17.7442 108.062 18.0894C107.417 18.4346 106.599 18.6072 105.608 18.6072H103.586V23.2333H101.167V11.1848H105.608C106.541 11.1848 107.336 11.3459 107.993 11.6681C108.65 11.9903 109.139 12.4334 109.462 12.9972C109.796 13.5611 109.963 14.1998 109.963 14.9133ZM105.505 16.6567C106.173 16.6567 106.668 16.5071 106.991 16.2079C107.313 15.8972 107.475 15.4656 107.475 14.9133C107.475 13.7395 106.818 13.1526 105.505 13.1526H103.586V16.6567H105.505Z" fill="white"/>
<path d="M119.077 20.9375H114.273L113.478 23.2333H110.938L115.275 11.1675H118.092L122.429 23.2333H119.871L119.077 20.9375ZM118.42 19.0043L116.675 13.9639L114.929 19.0043H118.42Z" fill="white"/>
<path d="M134.366 23.2333H131.947L126.469 14.9651V23.2333H124.05V11.1675H126.469L131.947 19.4531V11.1675H134.366V23.2333Z" fill="white"/>
<path d="M146.348 11.1848L142.27 19.0388V23.2333H139.85V19.0388L135.755 11.1848H138.485L141.077 16.6912L143.652 11.1848H146.348Z" fill="white"/>
</svg>
