<svg width="30" height="30" viewBox="0 0 30 30" fill="none" xmlns="http://www.w3.org/2000/svg">
<path d="M21.3111 0H8.68886C7.48085 0 6.50571 0.97952 6.50571 2.18534V27.8168C6.50571 29.0216 7.48085 30 8.68886 30H21.3111C22.5169 30 23.4943 29.0216 23.4943 27.8168V2.18534C23.4943 0.97952 22.5169 0 21.3111 0ZM11.8854 1.32716H18.1167C18.2742 1.32716 18.4021 1.5622 18.4021 1.853C18.4021 2.14379 18.2742 2.37993 18.1167 2.37993H11.8854C11.7269 2.37993 11.6012 2.14379 11.6012 1.853C11.6012 1.5622 11.7269 1.32716 11.8854 1.32716ZM15.0011 27.8431C14.2326 27.8431 13.6072 27.2178 13.6072 26.4481C13.6072 25.6785 14.2326 25.0554 15.0011 25.0554C15.7674 25.0554 16.3927 25.6785 16.3927 26.4481C16.3927 27.2178 15.7674 27.8431 15.0011 27.8431ZM21.8588 23.0668H8.14225V3.68741H21.8588V23.0668Z" fill="#0D4FFA"/>
</svg>
