<svg width="34" height="34" viewBox="0 0 34 34" fill="none" xmlns="http://www.w3.org/2000/svg">
<path d="M30.4627 28.0375L28.9445 8.90531C28.8503 7.67261 27.8074 6.7074 26.5713 6.7074H23.5722V11.1511C23.5722 11.7014 23.1267 12.1469 22.5764 12.1469C22.0268 12.1469 21.5806 11.7014 21.5806 11.1511V6.7074H12.4198V11.1511C12.4198 11.7014 11.9737 12.1469 11.4241 12.1469C10.8738 12.1469 10.4283 11.7014 10.4283 11.1511V6.7074H7.42913C6.19311 6.7074 5.1502 7.67261 5.05597 8.90266L3.53713 28.0402C3.41966 29.573 3.95137 31.0985 4.99554 32.2257C6.03978 33.3528 7.52011 34 9.05688 34H24.9436C26.4804 34 27.9608 33.3528 29.005 32.2256C30.0492 31.0984 30.5809 29.5729 30.4627 28.0375ZM21.4864 18.2945L16.3364 23.4445C16.1419 23.639 15.887 23.7365 15.6321 23.7365C15.3772 23.7365 15.1223 23.639 14.9278 23.4445L12.5141 21.0308C12.1251 20.6418 12.1251 20.0118 12.5141 19.6228C12.9031 19.2338 13.5338 19.2338 13.9221 19.6228L15.6322 21.3322L20.0785 16.8859C20.4668 16.4975 21.0975 16.4975 21.4865 16.8859C21.8754 17.2749 21.8754 17.9055 21.4864 18.2945Z" fill="white"/>
<path d="M17.0003 0C13.3764 0 10.4284 2.9487 10.4284 6.57256V6.7073H12.4199V6.57256C12.4199 4.04666 14.4744 1.99146 17.0003 1.99146C19.5262 1.99146 21.5808 4.04666 21.5808 6.57256V6.7073H23.5722V6.57256C23.5722 2.9487 20.6241 0 17.0003 0Z" fill="white"/>
</svg>
