<svg width="20" height="20" viewBox="0 0 20 20" fill="none" xmlns="http://www.w3.org/2000/svg">
<g clip-path="url(#clip0_3_17748)">
<path d="M17.9192 16.4926L17.0262 5.23839C16.9707 4.51327 16.3573 3.9455 15.6302 3.9455H13.866V6.55944C13.866 6.88315 13.6039 7.14518 13.2802 7.14518C12.9569 7.14518 12.6945 6.88315 12.6945 6.55944V3.9455H7.30578V6.55944C7.30578 6.88315 7.04336 7.14518 6.72004 7.14518C6.39633 7.14518 6.1343 6.88315 6.1343 6.55944V3.9455H4.37008C3.64301 3.9455 3.02953 4.51327 2.9741 5.23682L2.08067 16.4942C2.01157 17.3958 2.32434 18.2932 2.93856 18.9562C3.55281 19.6192 4.4236 20 5.32758 20H14.6727C15.5767 20 16.4475 19.6192 17.0618 18.9562C17.676 18.2932 17.9888 17.3958 17.9192 16.4926ZM12.6391 10.7614L9.60965 13.7908C9.49524 13.9053 9.34528 13.9626 9.19535 13.9626C9.04539 13.9626 8.89547 13.9053 8.78106 13.7908L7.36125 12.371C7.13242 12.1422 7.13242 11.7716 7.36125 11.5428C7.59008 11.314 7.96106 11.314 8.18949 11.5428L9.19539 12.5483L11.8109 9.93284C12.0393 9.7044 12.4103 9.7044 12.6391 9.93284C12.8679 10.1617 12.8679 10.5326 12.6391 10.7614Z" fill="#333333"/>
<path d="M10.0002 0C7.86848 0 6.13434 1.73453 6.13434 3.86621V3.94547H7.30582V3.86621C7.30582 2.38039 8.51438 1.17145 10.0002 1.17145C11.486 1.17145 12.6946 2.38039 12.6946 3.86621V3.94547H13.866V3.86621C13.866 1.73453 12.1318 0 10.0002 0Z" fill="#333333"/>
</g>
<defs>
<clipPath id="clip0_3_17748">
<rect width="20" height="20" fill="white"/>
</clipPath>
</defs>
</svg>
