<svg width="20" height="20" viewBox="0 0 20 20" fill="none" xmlns="http://www.w3.org/2000/svg">
<path d="M14.5437 5.54367C13.1276 5.54307 11.98 4.39543 11.9796 2.97957V0H4.05128C3.20272 0.00240385 2.51522 0.689904 2.51282 1.53846V18.4615C2.51522 19.3101 3.20272 19.9976 4.05128 20H15.9846C16.8333 19.9976 17.5206 19.3101 17.523 18.4615V5.54367H14.5437ZM5.28726 7.84615H10.8307C11.114 7.84615 11.3435 8.07572 11.3435 8.35897C11.3435 8.64223 11.114 8.87179 10.8307 8.87179H5.28726C5.004 8.87179 4.77444 8.64223 4.77444 8.35897C4.77444 8.07572 5.004 7.84615 5.28726 7.84615ZM15.2666 16.6308H5.28726C5.004 16.6308 4.77444 16.4012 4.77444 16.118C4.77444 15.8347 5.004 15.6052 5.28726 15.6052H15.2666C15.5499 15.6052 15.7794 15.8347 15.7794 16.118C15.7794 16.4012 15.5499 16.6308 15.2666 16.6308ZM15.2666 12.7488H5.28726C5.004 12.7488 4.77444 12.519 4.77444 12.236C4.77444 11.9527 5.004 11.7232 5.28726 11.7232H15.2666C15.5499 11.7232 15.7794 11.9527 15.7794 12.236C15.7794 12.519 15.5499 12.7488 15.2666 12.7488Z" fill="#6e6e6e"/>
<path d="M14.5436 4.51802H16.8103L13.0052 0.723145V2.97955C13.0058 3.82891 13.6941 4.51722 14.5436 4.51802Z" fill="#6e6e6e"/>
</svg>
