<svg width="31" height="30" viewBox="0 0 31 30" fill="none" xmlns="http://www.w3.org/2000/svg">
<path d="M23.625 0H7.37498C5.6525 0 4.25 1.4025 4.25 3.12498V26.875C4.25 28.5975 5.6525 30 7.37498 30H23.625C25.3475 30 26.75 28.5975 26.75 26.875V3.12498C26.75 1.4025 25.3475 0 23.625 0ZM15.5 28.125C14.8112 28.125 14.25 27.5637 14.25 26.875C14.25 26.1863 14.8113 25.625 15.5 25.625C16.1887 25.625 16.75 26.1863 16.75 26.875C16.75 27.5637 16.1888 28.125 15.5 28.125ZM24.25 24.375C24.25 24.72 23.97 25 23.625 25H7.37498C7.02998 25 6.74996 24.72 6.74996 24.375V3.12498C6.74996 2.77998 7.02998 2.49996 7.37498 2.49996H23.625C23.97 2.49996 24.25 2.77998 24.25 3.12498V24.375Z" fill="#48A846"/>
</svg>
