<svg width="34" height="34" viewBox="0 0 34 34" fill="none" xmlns="http://www.w3.org/2000/svg">
<path d="M26.5625 8.49996H31.2481L25.5 2.75183V7.43746C25.5 7.71925 25.6119 7.9895 25.8112 8.18876C26.0105 8.38801 26.2807 8.49996 26.5625 8.49996Z" fill="white"/>
<path d="M26.5625 10.625C25.7171 10.625 24.9064 10.2892 24.3086 9.6914C23.7108 9.09363 23.375 8.28288 23.375 7.4375V2.125H11.6875C10.8421 2.125 10.0314 2.46083 9.4336 3.0586C8.83582 3.65637 8.5 4.46712 8.5 5.3125V12.9625C10.8649 12.4788 13.324 12.8148 15.4725 13.9152C17.6209 15.0156 19.3306 16.8147 20.3202 19.0164C21.3097 21.2181 21.5201 23.6912 20.9166 26.0284C20.3131 28.3655 18.9318 30.4276 17 31.875H28.6875C29.5329 31.875 30.3436 31.5392 30.9414 30.9414C31.5392 30.3436 31.875 29.5329 31.875 28.6875V10.625H26.5625ZM20.1875 10.625H13.8125C13.5307 10.625 13.2605 10.5131 13.0612 10.3138C12.8619 10.1145 12.75 9.84429 12.75 9.5625C12.75 9.28071 12.8619 9.01046 13.0612 8.8112C13.2605 8.61194 13.5307 8.5 13.8125 8.5H20.1875C20.4693 8.5 20.7395 8.61194 20.9388 8.8112C21.1381 9.01046 21.25 9.28071 21.25 9.5625C21.25 9.84429 21.1381 10.1145 20.9388 10.3138C20.7395 10.5131 20.4693 10.625 20.1875 10.625ZM26.5625 26.5625H24.4375C24.1557 26.5625 23.8855 26.4506 23.6862 26.2513C23.4869 26.052 23.375 25.7818 23.375 25.5C23.375 25.2182 23.4869 24.948 23.6862 24.7487C23.8855 24.5494 24.1557 24.4375 24.4375 24.4375H26.5625C26.8443 24.4375 27.1145 24.5494 27.3138 24.7487C27.5131 24.948 27.625 25.2182 27.625 25.5C27.625 25.7818 27.5131 26.052 27.3138 26.2513C27.1145 26.4506 26.8443 26.5625 26.5625 26.5625ZM26.5625 21.25H24.4375C24.1557 21.25 23.8855 21.1381 23.6862 20.9388C23.4869 20.7395 23.375 20.4693 23.375 20.1875C23.375 19.9057 23.4869 19.6355 23.6862 19.4362C23.8855 19.2369 24.1557 19.125 24.4375 19.125H26.5625C26.8443 19.125 27.1145 19.2369 27.3138 19.4362C27.5131 19.6355 27.625 19.9057 27.625 20.1875C27.625 20.4693 27.5131 20.7395 27.3138 20.9388C27.1145 21.1381 26.8443 21.25 26.5625 21.25ZM26.5625 15.9375H22.3125C22.0307 15.9375 21.7605 15.8256 21.5612 15.6263C21.3619 15.427 21.25 15.1568 21.25 14.875C21.25 14.5932 21.3619 14.323 21.5612 14.1237C21.7605 13.9244 22.0307 13.8125 22.3125 13.8125H26.5625C26.8443 13.8125 27.1145 13.9244 27.3138 14.1237C27.5131 14.323 27.625 14.5932 27.625 14.875C27.625 15.1568 27.5131 15.427 27.3138 15.6263C27.1145 15.8256 26.8443 15.9375 26.5625 15.9375Z" fill="white"/>
<path d="M10.625 14.875C8.94386 14.875 7.30047 15.3735 5.90266 16.3075C4.50484 17.2415 3.41537 18.569 2.77203 20.1222C2.12868 21.6754 1.96035 23.3844 2.28833 25.0333C2.6163 26.6821 3.42585 28.1967 4.6146 29.3854C5.80334 30.5742 7.3179 31.3837 8.96674 31.7117C10.6156 32.0396 12.3246 31.8713 13.8778 31.228C15.431 30.5846 16.7585 29.4952 17.6925 28.0973C18.6265 26.6995 19.125 25.0561 19.125 23.375C19.125 21.1207 18.2295 18.9587 16.6354 17.3646C15.0414 15.7705 12.8793 14.875 10.625 14.875ZM8.5 20.1875C8.71015 20.1875 8.91557 20.2498 9.0903 20.3666C9.26503 20.4833 9.40121 20.6493 9.48163 20.8434C9.56204 21.0375 9.58309 21.2512 9.54209 21.4573C9.50109 21.6634 9.3999 21.8527 9.2513 22.0013C9.10271 22.1499 8.91339 22.2511 8.70729 22.2921C8.50118 22.3331 8.28755 22.312 8.0934 22.2316C7.89926 22.1512 7.73332 22.015 7.61657 21.8403C7.49982 21.6656 7.4375 21.4601 7.4375 21.25C7.4375 20.9682 7.54945 20.698 7.7487 20.4987C7.94796 20.2994 8.21821 20.1875 8.5 20.1875ZM12.75 26.5625C12.5399 26.5625 12.3344 26.5002 12.1597 26.3834C11.985 26.2667 11.8488 26.1007 11.7684 25.9066C11.688 25.7125 11.6669 25.4988 11.7079 25.2927C11.7489 25.0866 11.8501 24.8973 11.9987 24.7487C12.1473 24.6001 12.3366 24.4989 12.5427 24.4579C12.7488 24.4169 12.9625 24.438 13.1566 24.5184C13.3508 24.5988 13.5167 24.735 13.6334 24.9097C13.7502 25.0844 13.8125 25.2899 13.8125 25.5C13.8125 25.7818 13.7006 26.052 13.5013 26.2513C13.302 26.4506 13.0318 26.5625 12.75 26.5625ZM13.5044 22.0044L9.25438 26.2544C9.15561 26.354 9.03809 26.433 8.90862 26.4869C8.77914 26.5409 8.64027 26.5687 8.5 26.5687C8.35974 26.5687 8.22087 26.5409 8.09139 26.4869C7.96192 26.433 7.8444 26.354 7.74563 26.2544C7.64604 26.1556 7.567 26.0381 7.51306 25.9086C7.45912 25.7791 7.43134 25.6403 7.43134 25.5C7.43134 25.3597 7.45912 25.2209 7.51306 25.0914C7.567 24.9619 7.64604 24.8444 7.74563 24.7456L11.9956 20.4956C12.1957 20.2956 12.4671 20.1832 12.75 20.1832C13.0329 20.1832 13.3043 20.2956 13.5044 20.4956C13.7045 20.6957 13.8169 20.9671 13.8169 21.25C13.8169 21.5329 13.7045 21.8043 13.5044 22.0044Z" fill="white"/>
</svg>
