<svg width="20" height="20" viewBox="0 0 20 20" fill="none" xmlns="http://www.w3.org/2000/svg">
<mask id="mask0_3_18213" style="mask-type:alpha" maskUnits="userSpaceOnUse" x="0" y="0" width="20" height="20">
<rect width="20" height="20" fill="#D9D9D9"/>
</mask>
<g mask="url(#mask0_3_18213)">
<path d="M9.99998 0.833374C11.1528 0.833374 12.1355 1.23949 12.9483 2.05171C13.7605 2.86449 14.1666 3.84726 14.1666 5.00004V6.66671H15C15.4583 6.66671 15.8508 6.82976 16.1775 7.15587C16.5036 7.48254 16.6666 7.87504 16.6666 8.33337V16.6667C16.6666 17.125 16.5036 17.5175 16.1775 17.8442C15.8508 18.1703 15.4583 18.3334 15 18.3334H4.99998C4.54165 18.3334 4.14942 18.1703 3.82331 17.8442C3.49665 17.5175 3.33331 17.125 3.33331 16.6667V8.33337C3.33331 7.87504 3.49665 7.48254 3.82331 7.15587C4.14942 6.82976 4.54165 6.66671 4.99998 6.66671H5.83331V5.00004C5.83331 3.84726 6.2397 2.86449 7.05248 2.05171C7.8647 1.23949 8.8472 0.833374 9.99998 0.833374ZM9.99998 2.50004C9.30554 2.50004 8.71526 2.7431 8.22915 3.22921C7.74304 3.71532 7.49998 4.3056 7.49998 5.00004V6.66671H12.5V5.00004C12.5 4.3056 12.2569 3.71532 11.7708 3.22921C11.2847 2.7431 10.6944 2.50004 9.99998 2.50004ZM4.99998 16.6667H15V8.33337H4.99998V16.6667ZM9.99998 10.8334C9.54165 10.8334 9.14942 10.9964 8.82331 11.3225C8.49665 11.6492 8.33331 12.0417 8.33331 12.5C8.33331 12.9584 8.49665 13.3509 8.82331 13.6775C9.14942 14.0037 9.54165 14.1667 9.99998 14.1667C10.4583 14.1667 10.8508 14.0037 11.1775 13.6775C11.5036 13.3509 11.6666 12.9584 11.6666 12.5C11.6666 12.0417 11.5036 11.6492 11.1775 11.3225C10.8508 10.9964 10.4583 10.8334 9.99998 10.8334Z" fill="#333333"/>
</g>
</svg>
