<svg width="10" height="10" viewBox="0 0 10 10" fill="none" xmlns="http://www.w3.org/2000/svg">
<path d="M8.44558 1.25506C8.61838 1.08965 8.84834 0.998212 9.08693 1.00003C9.32551 1.00184 9.55407 1.09677 9.72436 1.26478C9.89466 1.4328 9.99337 1.66075 9.99968 1.90055C10.006 2.14034 9.91939 2.37323 9.75816 2.55005L4.86357 8.70436C4.7794 8.79551 4.67782 8.86865 4.5649 8.91942C4.45198 8.97018 4.33003 8.99754 4.20636 8.99984C4.08268 9.00214 3.95981 8.97935 3.8451 8.93282C3.73038 8.88629 3.62618 8.81698 3.53872 8.72903L0.292827 5.46564C0.202435 5.38096 0.129933 5.27884 0.0796475 5.16537C0.0293621 5.05191 0.00232279 4.92942 0.000143182 4.80522C-0.00203643 4.68102 0.0206883 4.55765 0.0669613 4.44248C0.113234 4.3273 0.182108 4.22267 0.269473 4.13483C0.356838 4.047 0.460905 3.97775 0.575465 3.93123C0.690026 3.88471 0.812734 3.86186 0.936267 3.86405C1.0598 3.86624 1.18163 3.89343 1.29449 3.94398C1.40734 3.99454 1.50892 4.06743 1.59315 4.15831L4.16189 6.73967L8.42227 1.28219C8.42994 1.27269 8.43813 1.26364 8.4468 1.25506H8.44558Z" fill="white"/>
</svg>
