<svg width="30" height="30" viewBox="0 0 30 30" fill="none" xmlns="http://www.w3.org/2000/svg">
<path fill-rule="evenodd" clip-rule="evenodd" d="M1.5625 7.5C1.5625 5.60153 3.10153 4.0625 5 4.0625H25C26.8985 4.0625 28.4375 5.60153 28.4375 7.5V20C28.4375 21.8985 26.8985 23.4375 25 23.4375H17.7669L18.7044 25.3125H21.25C21.7678 25.3125 22.1875 25.7323 22.1875 26.25C22.1875 26.7678 21.7678 27.1875 21.25 27.1875H8.75C8.23224 27.1875 7.8125 26.7678 7.8125 26.25C7.8125 25.7323 8.23224 25.3125 8.75 25.3125H11.2956L12.2331 23.4375H5C3.10153 23.4375 1.5625 21.8985 1.5625 20V7.5ZM25 21.5625H5C4.13705 21.5625 3.4375 20.863 3.4375 20V7.5C3.4375 6.63705 4.13705 5.9375 5 5.9375H25C25.863 5.9375 26.5625 6.63705 26.5625 7.5V20C26.5625 20.863 25.863 21.5625 25 21.5625Z" fill="#F03C3D"/>
</svg>
