<svg width="20" height="20" viewBox="0 0 20 20" fill="none" xmlns="http://www.w3.org/2000/svg">
<path d="M13.3166 3.28752C13.2551 2.83834 13.033 2.42664 12.6913 2.12864C12.3497 1.83065 11.9116 1.66653 11.4583 1.66669H8.54158C8.08822 1.66653 7.65016 1.83065 7.30849 2.12864C6.96683 2.42664 6.74471 2.83834 6.68325 3.28752L6.67158 3.40002L6.67825 3.33335H5.20825C4.71097 3.33335 4.23406 3.5309 3.88243 3.88253C3.5308 4.23416 3.33325 4.71107 3.33325 5.20835V16.4584C3.33325 16.9556 3.5308 17.4325 3.88243 17.7842C4.23406 18.1358 4.71097 18.3334 5.20825 18.3334H9.16742C9.16147 18.167 9.17915 18.0006 9.21992 17.8392L9.60159 16.3142C9.68159 15.995 9.81158 15.6925 9.98575 15.4167H6.66659C6.50082 15.4167 6.34185 15.3508 6.22464 15.2336C6.10743 15.1164 6.04159 14.9574 6.04159 14.7917C6.04159 14.6259 6.10743 14.467 6.22464 14.3497C6.34185 14.2325 6.50082 14.1667 6.66659 14.1667H11.1299L15.3283 9.96835C15.6952 9.60082 16.1595 9.34581 16.6666 9.23335V5.20835C16.6666 4.96213 16.6181 4.71831 16.5239 4.49082C16.4296 4.26334 16.2915 4.05664 16.1174 3.88253C15.9433 3.70842 15.7366 3.57031 15.5091 3.47608C15.2816 3.38185 15.0378 3.33335 14.7916 3.33335H13.3216L13.3274 3.40002L13.3158 3.28752H13.3166ZM8.54158 2.91669H11.4583C11.624 2.91669 11.783 2.98254 11.9002 3.09975C12.0174 3.21696 12.0833 3.37593 12.0833 3.54169C12.0833 3.70745 12.0174 3.86642 11.9002 3.98363C11.783 4.10084 11.624 4.16669 11.4583 4.16669H8.54158C8.37582 4.16669 8.21685 4.10084 8.09964 3.98363C7.98243 3.86642 7.91658 3.70745 7.91658 3.54169C7.91658 3.37593 7.98243 3.21696 8.09964 3.09975C8.21685 2.98254 8.37582 2.91669 8.54158 2.91669ZM6.66659 10.8334H9.99992C10.1657 10.8334 10.3246 10.8992 10.4419 11.0164C10.5591 11.1336 10.6249 11.2926 10.6249 11.4584C10.6249 11.6241 10.5591 11.7831 10.4419 11.9003C10.3246 12.0175 10.1657 12.0834 9.99992 12.0834H6.66659C6.50082 12.0834 6.34185 12.0175 6.22464 11.9003C6.10743 11.7831 6.04159 11.6241 6.04159 11.4584C6.04159 11.2926 6.10743 11.1336 6.22464 11.0164C6.34185 10.8992 6.50082 10.8334 6.66659 10.8334ZM6.66659 7.50002H13.3333C13.499 7.50002 13.658 7.56587 13.7752 7.68308C13.8924 7.80029 13.9583 7.95926 13.9583 8.12502C13.9583 8.29078 13.8924 8.44975 13.7752 8.56696C13.658 8.68417 13.499 8.75002 13.3333 8.75002H6.66659C6.50082 8.75002 6.34185 8.68417 6.22464 8.56696C6.10743 8.44975 6.04159 8.29078 6.04159 8.12502C6.04159 7.95926 6.10743 7.80029 6.22464 7.68308C6.34185 7.56587 6.50082 7.50002 6.66659 7.50002ZM15.9166 10.5584L10.9974 15.4767C10.7108 15.7634 10.5075 16.1226 10.4091 16.5159L10.0274 18.0417C9.98946 18.1935 9.99148 18.3526 10.0333 18.5034C10.0751 18.6542 10.1552 18.7916 10.2659 18.9022C10.3766 19.0128 10.5141 19.0928 10.6649 19.1345C10.8157 19.1762 10.9748 19.1781 11.1266 19.14L12.6516 18.7592C13.0453 18.6607 13.4048 18.4571 13.6916 18.17L18.6099 13.2517C18.9533 12.8917 19.1423 12.4117 19.1365 11.9143C19.1306 11.4168 18.9304 10.9414 18.5786 10.5896C18.2269 10.2378 17.7514 10.0376 17.254 10.0318C16.7565 10.026 16.2765 10.2149 15.9166 10.5584Z" fill="#666666" fill-opacity="0.7"/>
</svg>
