<svg width="20" height="20" viewBox="0 0 20 20" fill="none" xmlns="http://www.w3.org/2000/svg">
<g clip-path="url(#clip0_3_17758)">
<path d="M10.0005 0C4.47943 0 0.000427246 4.47335 0.000427246 9.99474C0.000427246 15.5214 4.47943 20 10.0004 20C15.5244 20 19.9996 15.5214 19.9996 9.99474C19.9997 4.47335 15.5244 0 10.0005 0ZM10.7131 15.559C10.4808 15.7657 10.2116 15.8696 9.90672 15.8696C9.59124 15.8696 9.31606 15.7676 9.08116 15.5631C8.8459 15.3591 8.72803 15.0734 8.72803 14.7063C8.72803 14.3807 8.8421 14.1066 9.06949 13.8845C9.29688 13.6624 9.57582 13.5514 9.90672 13.5514C10.2323 13.5514 10.5064 13.6624 10.7289 13.8845C10.951 14.1066 11.0624 14.3807 11.0624 14.7063C11.062 15.0681 10.9457 15.3524 10.7131 15.559ZM13.6091 8.37939C13.4306 8.71029 13.2187 8.99561 12.9729 9.2362C12.7278 9.47675 12.287 9.88105 11.6508 10.4495C11.4753 10.6099 11.3342 10.7506 11.2284 10.8718C11.1226 10.9935 11.0436 11.1045 10.992 11.2054C10.94 11.3062 10.9002 11.4072 10.8719 11.508C10.8437 11.6085 10.8011 11.7859 10.7435 12.0392C10.6457 12.5768 10.3381 12.8455 9.82122 12.8455C9.55243 12.8455 9.32657 12.7578 9.14248 12.582C8.95913 12.4062 8.86766 12.1453 8.86766 11.799C8.86766 11.365 8.93505 10.9889 9.06944 10.6708C9.2031 10.3527 9.38191 10.0738 9.60402 9.83321C9.8265 9.59266 10.1261 9.30729 10.5037 8.97639C10.8346 8.6869 11.0737 8.46858 11.2209 8.32136C11.3684 8.17381 11.4923 8.00968 11.5928 7.82897C11.6941 7.64789 11.7438 7.45176 11.7438 7.23984C11.7438 6.82613 11.5906 6.47754 11.2826 6.19333C10.9751 5.90911 10.5783 5.7668 10.0923 5.7668C9.52349 5.7668 9.10487 5.91022 8.83608 6.19708C8.56729 6.48394 8.34031 6.9063 8.15395 7.46459C7.97778 8.04886 7.64424 8.34095 7.15371 8.34095C6.86421 8.34095 6.61992 8.23892 6.42078 8.03487C6.22201 7.83082 6.12262 7.60987 6.12262 7.37196C6.12262 6.88106 6.28036 6.38339 6.59547 5.87933C6.91094 5.37528 7.37096 4.95778 7.97588 4.62725C8.58044 4.29635 9.28632 4.13069 10.0923 4.13069C10.8418 4.13069 11.5032 4.26921 12.0769 4.54592C12.6506 4.82222 13.0941 5.19832 13.4069 5.67413C13.7194 6.14956 13.876 6.66645 13.876 7.22474C13.8767 7.66336 13.7875 8.04849 13.6091 8.37939Z" fill="#333333"/>
</g>
<defs>
<clipPath id="clip0_3_17758">
<rect width="20" height="20" fill="white"/>
</clipPath>
</defs>
</svg>
