<svg width="198" height="46" viewBox="0 0 198 46" fill="none" xmlns="http://www.w3.org/2000/svg">
<path fill-rule="evenodd" clip-rule="evenodd" d="M19.3224 23L29.0175 32.8232L22.543 39.4286L6.44288 23L22.543 6.57135L24.9586 9.03539L28.1786 5.74943L22.543 5.38563e-07L0 23L22.543 46L35.4231 32.8573L22.543 19.714L19.3224 23Z" fill="white"/>
<path fill-rule="evenodd" clip-rule="evenodd" d="M45.6199 23L35.9248 13.1768L42.3993 6.57135L58.4995 23L42.3993 39.4287L39.9837 36.9646L36.7637 40.2506L42.3993 46L64.9423 23L42.3993 0L29.5192 13.1427L42.3993 26.286L45.6199 23Z" fill="white"/>
<path d="M78.7491 23.2595C78.7491 21.6559 79.1076 20.2235 79.8245 18.9624C80.5571 17.6857 81.5468 16.6971 82.7937 15.9964C84.0562 15.2803 85.4667 14.9222 87.0253 14.9222C88.8489 14.9222 90.4465 15.3892 91.8181 16.3234C93.1897 17.2576 94.1482 18.5498 94.6937 20.2001H90.9297C90.5556 19.4217 90.0257 18.8378 89.3399 18.4486C88.6697 18.0594 87.8904 17.8647 87.002 17.8647C86.0512 17.8647 85.2018 18.0905 84.4536 18.542C83.7211 18.9779 83.1444 19.6007 82.7235 20.4103C82.3183 21.2199 82.1157 22.1696 82.1157 23.2595C82.1157 24.3338 82.3183 25.2835 82.7235 26.1087C83.1444 26.9183 83.7211 27.5488 84.4536 28.0003C85.2018 28.4363 86.0512 28.6542 87.002 28.6542C87.8904 28.6542 88.6697 28.4596 89.3399 28.0704C90.0257 27.6656 90.5556 27.0739 90.9297 26.2955H94.6937C94.1482 27.9614 93.1897 29.2614 91.8181 30.1956C90.4621 31.1142 88.8645 31.5735 87.0253 31.5735C85.4667 31.5735 84.0562 31.2231 82.7937 30.5225C81.5468 29.8063 80.5571 28.8177 79.8245 27.5566C79.1076 26.2955 78.7491 24.8631 78.7491 23.2595Z" fill="white"/>
<path d="M105.064 31.5968C103.537 31.5968 102.134 31.2387 100.856 30.5225C99.5779 29.8063 98.5648 28.8177 97.8167 27.5566C97.0685 26.2799 96.6945 24.8398 96.6945 23.2361C96.6945 21.6481 97.0685 20.2235 97.8167 18.9624C98.5648 17.6857 99.5779 16.6893 100.856 15.9731C102.134 15.2569 103.537 14.8988 105.064 14.8988C106.607 14.8988 108.01 15.2569 109.273 15.9731C110.551 16.6893 111.556 17.6857 112.288 18.9624C113.037 20.2235 113.411 21.6481 113.411 23.2361C113.411 24.8398 113.037 26.2799 112.288 27.5566C111.556 28.8177 110.551 29.8063 109.273 30.5225C107.994 31.2387 106.592 31.5968 105.064 31.5968ZM105.064 28.6776C106.046 28.6776 106.911 28.4596 107.659 28.0237C108.407 27.5722 108.992 26.9338 109.413 26.1087C109.834 25.2835 110.044 24.326 110.044 23.2361C110.044 22.1463 109.834 21.1966 109.413 20.387C108.992 19.5618 108.407 18.9312 107.659 18.4953C106.911 18.0594 106.046 17.8414 105.064 17.8414C104.082 17.8414 103.209 18.0594 102.446 18.4953C101.698 18.9312 101.113 19.5618 100.692 20.387C100.271 21.1966 100.061 22.1463 100.061 23.2361C100.061 24.326 100.271 25.2835 100.692 26.1087C101.113 26.9338 101.698 27.5722 102.446 28.0237C103.209 28.4596 104.082 28.6776 105.064 28.6776Z" fill="white"/>
<path d="M133.637 15.1324V31.4333H130.364V20.8307L125.992 31.4333H123.514L119.119 20.8307V31.4333H115.846V15.1324H119.563L124.753 27.253L129.943 15.1324H133.637Z" fill="white"/>
<path d="M148.773 20.1768C148.773 21.0487 148.563 21.866 148.142 22.6289C147.737 23.3918 147.09 24.0068 146.202 24.4739C145.329 24.941 144.222 25.1745 142.882 25.1745H140.146V31.4333H136.873V15.1324H142.882C144.144 15.1324 145.22 15.3503 146.108 15.7863C146.997 16.2222 147.659 16.8216 148.095 17.5845C148.547 18.3474 148.773 19.2115 148.773 20.1768ZM142.742 22.5355C143.646 22.5355 144.316 22.3331 144.752 21.9283C145.189 21.5079 145.407 20.9241 145.407 20.1768C145.407 18.5887 144.518 17.7947 142.742 17.7947H140.146V22.5355H142.742Z" fill="white"/>
<path d="M161.104 28.3273H154.604L153.529 31.4333H150.092L155.96 15.109H159.771L165.639 31.4333H162.179L161.104 28.3273ZM160.215 25.7116L157.854 18.8923L155.493 25.7116H160.215Z" fill="white"/>
<path d="M181.79 31.4333H178.517L171.106 20.2468V31.4333H167.833V15.109H171.106L178.517 26.3188V15.109H181.79V31.4333Z" fill="white"/>
<path d="M198 15.1324L192.482 25.7583V31.4333H189.209V25.7583L183.669 15.1324H187.362L190.869 22.5822L194.353 15.1324H198Z" fill="white"/>
</svg>
