<svg width="147" height="34" viewBox="0 0 147 34" fill="none" xmlns="http://www.w3.org/2000/svg">
<path fill-rule="evenodd" clip-rule="evenodd" d="M14.3454 17L21.5433 24.2607L16.7365 29.1429L4.78335 17L16.7365 4.85708L18.5299 6.67833L20.9205 4.24958L16.7365 3.98069e-07L0 17L16.7365 34L26.299 24.2858L16.7365 14.5713L14.3454 17Z" fill="#9101CF"/>
<path fill-rule="evenodd" clip-rule="evenodd" d="M33.8693 17L26.6715 9.73934L31.4783 4.85709L43.4314 17L31.4783 29.1429L29.6849 27.3217L27.2943 29.7504L31.4783 34L48.2148 17L31.4783 0L21.9158 9.71417L31.4783 19.4288L33.8693 17Z" fill="#9101CF"/>
<path d="M58.4652 17.1918C58.4652 16.0065 58.7314 14.9478 59.2636 14.0157C59.8075 13.072 60.5423 12.3413 61.468 11.8235C62.4053 11.2941 63.4526 11.0294 64.6097 11.0294C65.9636 11.0294 67.1497 11.3747 68.168 12.0651C69.1862 12.7556 69.8979 13.7107 70.3029 14.9305H67.5084C67.2307 14.3552 66.8372 13.9236 66.3281 13.6359C65.8305 13.3482 65.2519 13.2044 64.5923 13.2044C63.8865 13.2044 63.2558 13.3712 62.7004 13.705C62.1565 14.0272 61.7284 14.4875 61.416 15.0859C61.1151 15.6843 60.9647 16.3863 60.9647 17.1918C60.9647 17.9858 61.1151 18.6878 61.416 19.2977C61.7284 19.8961 62.1565 20.3622 62.7004 20.6959C63.2558 21.0181 63.8865 21.1792 64.5923 21.1792C65.2519 21.1792 65.8305 21.0354 66.3281 20.7477C66.8372 20.4485 67.2307 20.0112 67.5084 19.4358H70.3029C69.8979 20.6671 69.1862 21.628 68.168 22.3185C67.1612 22.9974 65.9752 23.3369 64.6097 23.3369C63.4526 23.3369 62.4053 23.078 61.468 22.5601C60.5423 22.0308 59.8075 21.3 59.2636 20.3679C58.7314 19.4358 58.4652 18.3771 58.4652 17.1918Z" fill="#9101CF"/>
<path d="M78.0022 23.3542C76.8682 23.3542 75.8268 23.0895 74.8779 22.5601C73.929 22.0308 73.1769 21.3 72.6215 20.3679C72.066 19.4243 71.7883 18.3598 71.7883 17.1745C71.7883 16.0007 72.066 14.9478 72.6215 14.0157C73.1769 13.072 73.929 12.3356 74.8779 11.8062C75.8268 11.2768 76.8682 11.0122 78.0022 11.0122C79.1478 11.0122 80.1893 11.2768 81.1266 11.8062C82.0754 12.3356 82.8218 13.072 83.3656 14.0157C83.9211 14.9478 84.1988 16.0007 84.1988 17.1745C84.1988 18.3598 83.9211 19.4243 83.3656 20.3679C82.8218 21.3 82.0754 22.0308 81.1266 22.5601C80.1777 23.0895 79.1362 23.3542 78.0022 23.3542ZM78.0022 21.1965C78.7312 21.1965 79.3735 21.0354 79.9289 20.7131C80.4843 20.3794 80.9183 19.9076 81.2307 19.2977C81.5431 18.6878 81.6993 17.9801 81.6993 17.1745C81.6993 16.369 81.5431 15.667 81.2307 15.0686C80.9183 14.4587 80.4843 13.9927 79.9289 13.6704C79.3735 13.3482 78.7312 13.1871 78.0022 13.1871C77.2732 13.1871 76.6252 13.3482 76.0582 13.6704C75.5028 13.9927 75.0688 14.4587 74.7564 15.0686C74.444 15.667 74.2878 16.369 74.2878 17.1745C74.2878 17.9801 74.444 18.6878 74.7564 19.2977C75.0688 19.9076 75.5028 20.3794 76.0582 20.7131C76.6252 21.0354 77.2732 21.1965 78.0022 21.1965Z" fill="#9101CF"/>
<path d="M99.2156 11.1848V23.2333H96.7856V15.3966L93.5397 23.2333H91.6999L88.4367 15.3966V23.2333H86.0067V11.1848H88.7665L92.6198 20.1435L96.4731 11.1848H99.2156Z" fill="#9101CF"/>
<path d="M110.453 14.9133C110.453 15.5577 110.297 16.1619 109.984 16.7257C109.683 17.2896 109.203 17.7442 108.544 18.0894C107.896 18.4346 107.074 18.6072 106.079 18.6072H104.048V23.2333H101.618V11.1848H106.079C107.016 11.1848 107.815 11.3459 108.474 11.6681C109.134 11.9903 109.626 12.4334 109.95 12.9972C110.285 13.5611 110.453 14.1998 110.453 14.9133ZM105.975 16.6567C106.646 16.6567 107.143 16.5071 107.467 16.2079C107.791 15.8972 107.953 15.4656 107.953 14.9133C107.953 13.7395 107.294 13.1526 105.975 13.1526H104.048V16.6567H105.975Z" fill="#9101CF"/>
<path d="M119.607 20.9375H114.782L113.983 23.2333H111.432L115.789 11.1675H118.618L122.974 23.2333H120.406L119.607 20.9375ZM118.948 19.0043L117.194 13.9639L115.441 19.0043H118.948Z" fill="#9101CF"/>
<path d="M134.965 23.2333H132.535L127.033 14.9651V23.2333H124.603V11.1675H127.033L132.535 19.4531V11.1675H134.965V23.2333Z" fill="#9101CF"/>
<path d="M147 11.1848L142.904 19.0388V23.2333H140.474V19.0388L136.36 11.1848H139.102L141.706 16.6912L144.292 11.1848H147Z" fill="#9101CF"/>
</svg>
