<svg width="20" height="20" viewBox="0 0 20 20" fill="none" xmlns="http://www.w3.org/2000/svg">
<g clip-path="url(#clip0_157_518)">
<mask id="mask0_157_518" style="mask-type:luminance" maskUnits="userSpaceOnUse" x="0" y="0" width="20" height="20">
<path d="M20 0H0V20H20V0Z" fill="white"/>
</mask>
<g mask="url(#mask0_157_518)">
<path d="M17.9193 16.4924L17.0263 5.2382C16.9708 4.51308 16.3574 3.94531 15.6303 3.94531H13.8661V6.55925C13.8661 6.88296 13.604 7.14499 13.2803 7.14499C12.957 7.14499 12.6946 6.88296 12.6946 6.55925V3.94531H7.30584V6.55925C7.30584 6.88296 7.04342 7.14499 6.7201 7.14499C6.39639 7.14499 6.13436 6.88296 6.13436 6.55925V3.94531H4.37014C3.64307 3.94531 3.02959 4.51308 2.97416 5.23663L2.08073 16.494C2.01163 17.3956 2.3244 18.293 2.93862 18.956C3.55287 19.619 4.42366 19.9998 5.32764 19.9998H14.6728C15.5768 19.9998 16.4476 19.619 17.0619 18.956C17.6761 18.293 17.9889 17.3956 17.9193 16.4924ZM12.6392 10.7612L9.60971 13.7906C9.4953 13.9051 9.34534 13.9624 9.19541 13.9624C9.04545 13.9624 8.89553 13.9051 8.78112 13.7906L7.36131 12.3708C7.13248 12.142 7.13248 11.7714 7.36131 11.5426C7.59014 11.3138 7.96112 11.3138 8.18955 11.5426L9.19545 12.5481L11.811 9.93265C12.0394 9.70421 12.4104 9.70421 12.6392 9.93265C12.868 10.1615 12.868 10.5324 12.6392 10.7612Z" fill="#9101CF"/>
<path d="M10.0001 0C7.86842 0 6.13428 1.73453 6.13428 3.86621V3.94547H7.30576V3.86621C7.30576 2.38039 8.51432 1.17145 10.0001 1.17145C11.4859 1.17145 12.6945 2.38039 12.6945 3.86621V3.94547H13.8659V3.86621C13.8659 1.73453 12.1317 0 10.0001 0Z" fill="#9101CF"/>
</g>
</g>
<defs>
<clipPath id="clip0_157_518">
<rect width="20" height="20" fill="white"/>
</clipPath>
</defs>
</svg>
