<svg width="20" height="20" viewBox="0 0 20 20" fill="none" xmlns="http://www.w3.org/2000/svg">
<path d="M14.5438 5.54367C13.1277 5.54307 11.9801 4.39543 11.9797 2.97957V0H4.0514C3.20284 0.00240385 2.51534 0.689904 2.51294 1.53846V18.4615C2.51534 19.3101 3.20284 19.9976 4.0514 20H15.9847C16.8334 19.9976 17.5207 19.3101 17.5231 18.4615V5.54367H14.5438ZM5.28738 7.84615H10.8308C11.1141 7.84615 11.3436 8.07572 11.3436 8.35897C11.3436 8.64223 11.1141 8.87179 10.8308 8.87179H5.28738C5.00412 8.87179 4.77456 8.64223 4.77456 8.35897C4.77456 8.07572 5.00412 7.84615 5.28738 7.84615ZM15.2667 16.6308H5.28738C5.00412 16.6308 4.77456 16.4012 4.77456 16.118C4.77456 15.8347 5.00412 15.6052 5.28738 15.6052H15.2667C15.55 15.6052 15.7795 15.8347 15.7795 16.118C15.7795 16.4012 15.55 16.6308 15.2667 16.6308ZM15.2667 12.7488H5.28738C5.00412 12.7488 4.77456 12.519 4.77456 12.236C4.77456 11.9527 5.00412 11.7232 5.28738 11.7232H15.2667C15.55 11.7232 15.7795 11.9527 15.7795 12.236C15.7795 12.519 15.55 12.7488 15.2667 12.7488Z" fill="white"/>
<path d="M14.5435 4.51802H16.8102L13.0051 0.723145V2.97955C13.0057 3.82891 13.694 4.51722 14.5435 4.51802Z" fill="white"/>
</svg>
