<svg width="34" height="34" viewBox="0 0 34 34" fill="none" xmlns="http://www.w3.org/2000/svg">
<g clip-path="url(#clip0_3_17790)">
<path d="M11.322 6.375H22.678L25.1288 4.41433C25.9632 3.7485 26.2749 2.66758 25.9222 1.65892C25.5694 0.65025 24.6528 0 23.5875 0H10.4125C9.34716 0 8.43058 0.651667 8.07783 1.65892C7.72508 2.66617 8.03675 3.7485 8.86975 4.41292L11.322 6.375Z" fill="white"/>
<path d="M22.8721 8.5H11.1279C7.259 12.2981 4.25 18.9621 4.25 24.4375C4.25 29.1961 6.76883 34 12.3958 34H21.9583C26.7651 34 29.75 30.3351 29.75 24.4375C29.75 18.9621 26.741 12.2981 22.8721 8.5ZM16.4617 20.1875H17.5383C19.1944 20.1875 20.5417 21.5348 20.5417 23.1908C20.5417 24.6798 19.4678 25.9052 18.0625 26.1545V27.2694C18.0625 27.8559 17.5865 28.3319 17 28.3319C16.4135 28.3319 15.9375 27.8559 15.9375 27.2694V26.2083H14.5208C13.9343 26.2083 13.4583 25.7323 13.4583 25.1458C13.4583 24.5593 13.9343 24.0833 14.5208 24.0833H17.5383C18.0228 24.0833 18.4167 23.6895 18.4167 23.205C18.4167 22.7063 18.0228 22.3125 17.5383 22.3125H16.4617C14.8056 22.3125 13.4583 20.9653 13.4583 19.3092C13.4583 17.8202 14.5322 16.5948 15.9375 16.3455V15.2292C15.9375 14.6427 16.4135 14.1667 17 14.1667C17.5865 14.1667 18.0625 14.6427 18.0625 15.2292V16.2917H19.4792C20.0657 16.2917 20.5417 16.7677 20.5417 17.3542C20.5417 17.9407 20.0657 18.4167 19.4792 18.4167H16.4617C15.9772 18.4167 15.5833 18.8105 15.5833 19.295C15.5833 19.7937 15.9772 20.1875 16.4617 20.1875Z" fill="white"/>
</g>
<defs>
<clipPath id="clip0_3_17790">
<rect width="34" height="34" fill="white"/>
</clipPath>
</defs>
</svg>
