<svg width="30" height="30" viewBox="0 0 30 30" fill="none" xmlns="http://www.w3.org/2000/svg">
<g clip-path="url(#clip0_159_536)">
<mask id="mask0_159_536" style="mask-type:luminance" maskUnits="userSpaceOnUse" x="0" y="0" width="30" height="30">
<path d="M30 0H0V30H30V0Z" fill="white"/>
</mask>
<g mask="url(#mask0_159_536)">
<mask id="mask1_159_536" style="mask-type:alpha" maskUnits="userSpaceOnUse" x="0" y="0" width="30" height="30">
<path d="M30 0H0V30H30V0Z" fill="#C4C4C4"/>
</mask>
<g mask="url(#mask1_159_536)">
<path d="M24.5 26.25L16.625 18.375C16 18.875 15.2812 19.2709 14.4687 19.5625C13.6562 19.8541 12.7916 20 11.875 20C9.60416 20 7.6825 19.2137 6.11 17.6412C4.53666 16.0679 3.75 14.1459 3.75 11.875C3.75 9.60416 4.53666 7.68209 6.11 6.10875C7.6825 4.53625 9.60416 3.75 11.875 3.75C14.1459 3.75 16.0679 4.53625 17.6412 6.10875C19.2137 7.68209 20 9.60416 20 11.875C20 12.7916 19.8541 13.6562 19.5625 14.4687C19.2709 15.2812 18.875 16 18.375 16.625L26.25 24.5L24.5 26.25ZM11.875 17.5C13.4375 17.5 14.7659 16.9534 15.86 15.86C16.9534 14.7659 17.5 13.4375 17.5 11.875C17.5 10.3125 16.9534 8.98416 15.86 7.89C14.7659 6.79666 13.4375 6.25 11.875 6.25C10.3125 6.25 8.98416 6.79666 7.89 7.89C6.79666 8.98416 6.25 10.3125 6.25 11.875C6.25 13.4375 6.79666 14.7659 7.89 15.86C8.98416 16.9534 10.3125 17.5 11.875 17.5Z" fill="#333333"/>
</g>
</g>
</g>
<defs>
<clipPath id="clip0_159_536">
<rect width="30" height="30" fill="white"/>
</clipPath>
</defs>
</svg>
