<svg width="20" height="20" viewBox="0 0 20 20" fill="none" xmlns="http://www.w3.org/2000/svg">
<path d="M10 18.75C7.67936 18.75 5.45376 17.8281 3.81282 16.1872C2.17187 14.5462 1.25 12.3206 1.25 10C1.25 7.67936 2.17187 5.45376 3.81282 3.81282C5.45376 2.17187 7.67936 1.25 10 1.25C12.3206 1.25 14.5462 2.17187 16.1872 3.81282C17.8281 5.45376 18.75 7.67936 18.75 10C18.75 12.3206 17.8281 14.5462 16.1872 16.1872C14.5462 17.8281 12.3206 18.75 10 18.75ZM10 15C10.1587 15.0001 10.3157 14.9672 10.4609 14.9032C10.6062 14.8393 10.7365 14.7457 10.8435 14.6285C10.9506 14.5114 11.032 14.3732 11.0826 14.2228C11.1332 14.0724 11.1519 13.913 11.1375 13.755L10.6812 8.7475C10.6636 8.57915 10.5842 8.4233 10.4584 8.31003C10.3326 8.19676 10.1693 8.13408 10 8.13408C9.83072 8.13408 9.66743 8.19676 9.54164 8.31003C9.41584 8.4233 9.33644 8.57915 9.31875 8.7475L8.86375 13.755C8.84933 13.9129 8.86799 14.0721 8.91854 14.2225C8.96908 14.3728 9.0504 14.5109 9.15731 14.6281C9.26422 14.7452 9.39437 14.8388 9.53947 14.9028C9.68456 14.9669 9.8414 15 10 15ZM10 5C9.73478 5 9.48043 5.10536 9.29289 5.29289C9.10536 5.48043 9 5.73478 9 6C9 6.26522 9.10536 6.51957 9.29289 6.70711C9.48043 6.89464 9.73478 7 10 7C10.2652 7 10.5196 6.89464 10.7071 6.70711C10.8946 6.51957 11 6.26522 11 6C11 5.73478 10.8946 5.48043 10.7071 5.29289C10.5196 5.10536 10.2652 5 10 5Z" fill="white"/>
</svg>
