<svg width="20" height="20" viewBox="0 0 20 20" fill="none" xmlns="http://www.w3.org/2000/svg">
<path d="M8.68603 2.85197L2.12703 14.777C2.00139 15.0054 1.93744 15.2625 1.94146 15.5232C1.94549 15.7838 2.01736 16.0389 2.15 16.2632C2.28263 16.4876 2.47145 16.6736 2.69784 16.8028C2.92423 16.932 3.18037 16.9999 3.44103 17H16.56C16.8207 16.9999 17.0768 16.932 17.3032 16.8028C17.5296 16.6736 17.7184 16.4876 17.8511 16.2632C17.9837 16.0389 18.0556 15.7838 18.0596 15.5232C18.0636 15.2625 17.9997 15.0054 17.874 14.777L11.314 2.85197C11.1845 2.61679 10.9943 2.42067 10.7632 2.28408C10.5321 2.14749 10.2685 2.07544 10 2.07544C9.73156 2.07544 9.468 2.14749 9.23688 2.28408C9.00575 2.42067 8.81551 2.61679 8.68603 2.85197ZM10 6.74997C10.1989 6.74997 10.3897 6.82899 10.5304 6.96964C10.671 7.11029 10.75 7.30106 10.75 7.49997V11.5C10.75 11.6989 10.671 11.8896 10.5304 12.0303C10.3897 12.171 10.1989 12.25 10 12.25C9.80112 12.25 9.61035 12.171 9.4697 12.0303C9.32905 11.8896 9.25003 11.6989 9.25003 11.5V7.49997C9.25003 7.30106 9.32905 7.11029 9.4697 6.96964C9.61035 6.82899 9.80112 6.74997 10 6.74997ZM10.75 13.75C10.75 13.9489 10.671 14.1396 10.5304 14.2803C10.3897 14.421 10.1989 14.5 10 14.5C9.80112 14.5 9.61035 14.421 9.4697 14.2803C9.32905 14.1396 9.25003 13.9489 9.25003 13.75C9.25003 13.5511 9.32905 13.3603 9.4697 13.2196C9.61035 13.079 9.80112 13 10 13C10.1989 13 10.3897 13.079 10.5304 13.2196C10.671 13.3603 10.75 13.5511 10.75 13.75Z" fill="white"/>
</svg>
